<svg xmlns="http://www.w3.org/2000/svg" width="136" height="119" fill="none" viewBox="0 0 136 119"><path fill="#FCFCFC" d="M4.22084 118.992c-.50373.008-1.00581-.06-1.48928-.202-.39563-.118-.75326-.338-1.03718-.638-.2804-.322-.4624-.717-.52429-1.14-.08061-.568-.06263-1.147.05317-1.709l.33814-1.847c.0444-.239.0597-.483.04559-.725-.01546-.215-.08613-.422-.20515-.601-.13235-.192-.30804-.351-.512909-.463-.279882-.151-.578925-.264-.889-.335v-1.101c.312101-.06.61235-.171.889-.327.203719-.117.378909-.278.512909-.471.11902-.179.18969-.386.20515-.6.01401-.244-.00129-.489-.04559-.73l-.33814-1.842c-.1158-.563-.13378-1.141-.05317-1.71.06106-.423.24315-.819.52429-1.14.28392-.3.64155-.52 1.03718-.638.48347-.142.98555-.21 1.48928-.202v1.117c-.29722-.007-.59369.034-.87762.122-.22982.073-.4272.223-.55847.426-.14223.243-.2243.516-.23935.797-.02535.421.00143.844.07977 1.258l.33813 2.04c.06642.266.06974.544.00972.812s-.18172.518-.35543.731c-.15102-.068-.31665-.097-.48179-.085-.16514.013-.32451.066-.46358.156-.13908.09-.25343.213-.3326.359-.07917.145-.12065.308-.12065.474 0 .165.04148.328.12065.474.07917.145.19352.269.3326.359.13907.089.29844.143.46358.156.16514.012.33077-.017.48179-.085.17371.212.29541.462.35543.73.06002.268.0567.546-.00972.812l-.33813 2.037c-.07826.415-.10504.839-.07977 1.261.01505.281.09712.555.23935.798.13127.202.32865.353.55847.426.28435.086.58051.127.87762.121v1.125ZM17.2976 117.874c.2971.007.5934-.034.8776-.121.2298-.073.4272-.223.5585-.426.1455-.241.2279-.516.2394-.797.0252-.423-.0016-.846-.0798-1.262l-.3344-2.036c-.0673-.266-.071-.545-.011-.813.0601-.268.1823-.518.3568-.73.1503.066.3148.094.4785.081.1637-.014.3215-.068.459-.158.1376-.089.2506-.212.3288-.357.0782-.144.1191-.306.1191-.47 0-.164-.0409-.326-.1191-.47-.0782-.145-.1912-.267-.3288-.357-.1375-.09-.2953-.144-.459-.157-.1637-.014-.3282.014-.4785.08a1.75166 1.75166 0 0 1-.3568-.73c-.06-.268-.0563-.546.011-.813l.3344-2.04c.0783-.414.1051-.836.0798-1.257-.0115-.282-.0939-.556-.2394-.798-.1313-.202-.3287-.353-.5585-.426-.2838-.088-.5803-.129-.8776-.121v-1.117c.5038-.009 1.0059.059 1.4893.201.3956.119.7533.339 1.0372.639.2811.321.4632.717.5243 1.139.0806.569.0626 1.147-.0532 1.71l-.3382 1.842c-.045.241-.059.486-.0417.73.0123.214.0819.422.2013.6.1345.194.3112.355.5167.471.275.157.5741.268.8852.327v1.102c-.3091.07-.607.182-.8852.334-.2067.111-.3838.27-.5167.464-.1194.178-.189.385-.2013.6-.0174.243-.0034.487.0417.726l.3382 1.846c.1158.563.1338 1.141.0532 1.71-.0619.422-.2439.818-.5243 1.139-.2839.3-.6416.52-1.0372.639-.4834.142-.9855.209-1.4893.201v-1.125Z"/><path stroke="#FDFDFF" stroke-miterlimit="10" stroke-width="1.13976" d="M19.0642 16.0032v70.7677c0 .5837.115 1.1617.3384 1.701.2234.5393.5508 1.0294.9635 1.4421.4128.4128.9028.7402 1.4421.9636.5393.2233 1.1173.3383 1.7011.3383h84.3957c1.179 0 2.309-.4683 3.143-1.3019.833-.8336 1.302-1.9642 1.302-3.1431V27.8187c0-1.1789-.469-2.3095-1.302-3.1431-.834-.8337-1.964-1.302-3.143-1.302H61.1556c-.5838 0-1.1618-.115-1.7011-.3384a4.44657 4.44657 0 0 1-1.4421-.9635c-.4127-.4128-.7402-.9028-.9636-1.4421-.2233-.5393-.3383-1.1173-.3383-1.7011v-2.9253c0-1.1789-.4683-2.3096-1.3019-3.1432-.8336-.8336-1.9643-1.3019-3.1432-1.3019H23.5169c-.5844-.001-1.1632.1132-1.7034.3362-.5402.2229-1.0311.5502-1.4447.963-.4136.4129-.7416.9033-.9655 1.4431-.2239.5398-.3391 1.1184-.3391 1.7028Z"/><path fill="#3F2AFF" stroke="#3F2AFF" stroke-miterlimit="10" stroke-width="1.13976" d="M27.1679 25.0376v68.8871c0 1.4282.5671 2.7978 1.5766 3.808 1.0094 1.0102 2.3788 1.5783 3.8069 1.5793h82.5146c.707 0 1.408-.1394 2.061-.4102.654-.2708 1.247-.6677 1.747-1.168s.897-1.0942 1.167-1.7478.409-1.354.409-2.0613V36.853c0-.7071-.139-1.4073-.409-2.0607-.27-.6533-.667-1.247-1.167-1.747s-1.094-.8966-1.747-1.1669c-.653-.2704-1.354-.4093-2.061-.4088H70.1901c-.7073 0-1.4077-.1394-2.0611-.4102-.6534-.2707-1.247-.6676-1.747-1.1679a5.384075 5.384075 0 0 1-1.1667-1.7479c-.2703-.6536-.4092-1.3539-.4087-2.0612v-1.0448c0-.7073-.1394-1.4077-.4101-2.0611a5.382985 5.382985 0 0 0-1.168-1.7469c-.5003-.5-1.0942-.8965-1.7478-1.1668-.6536-.2703-1.3541-.4092-2.0614-.4087H32.5514c-.707 0-1.407.1393-2.0602.4098-.6531.2706-1.2466.6671-1.7465 1.167s-.8964 1.0934-1.167 1.7465c-.2705.6532-.4098 1.3532-.4098 2.0602Z"/><path fill="#FCACA9" d="M131.923 72.1934H73.461c-1.7835 0-3.2293 1.4458-3.2293 3.2293v40.3403c0 1.783 1.4458 3.229 3.2293 3.229h58.462c1.784 0 3.229-1.446 3.229-3.229V75.4227c0-1.7835-1.445-3.2293-3.229-3.2293Z"/><path fill="#FDFDFF" stroke="#FDFDFF" stroke-miterlimit="10" stroke-width="1.13976" d="M36.4571 31.7012c1.5736 0 2.8494-1.2757 2.8494-2.8494 0-1.5736-1.2758-2.8494-2.8494-2.8494-1.5737 0-2.8494 1.2758-2.8494 2.8494 0 1.5737 1.2757 2.8494 2.8494 2.8494Z"/><path stroke="#FDFDFF" stroke-miterlimit="10" stroke-width="1.13976" d="M46.0005 31.7012c1.5737 0 2.8494-1.2757 2.8494-2.8494 0-1.5736-1.2757-2.8494-2.8494-2.8494s-2.8494 1.2758-2.8494 2.8494c0 1.5737 1.2757 2.8494 2.8494 2.8494ZM55.0692 31.7012c1.5737 0 2.8494-1.2757 2.8494-2.8494 0-1.5736-1.2757-2.8494-2.8494-2.8494-1.5736 0-2.8494 1.2758-2.8494 2.8494 0 1.5737 1.2758 2.8494 2.8494 2.8494Z"/><path stroke="#000" stroke-miterlimit="10" stroke-width="1.13976" d="m84.5699 90.5852-4.9997 4.9997 5.0149 5.0151M120.811 90.5852l4.999 4.9997-5.011 5.0151M97.3734 82.6145l10.6336 25.9185M115.647 90.2581 89.7331 100.888M115.613 100.976 89.7674 90.1709M97.286 108.495l10.809-25.8427M102.711 82.0027l-.042 27.1793M116.278 95.5735H89.1025M112.285 105.216 93.0954 85.969M93.0689 105.189l19.2431-19.1897"/><path fill="#FCACA9" d="M102.688 102.305c3.708 0 6.714-3.0051 6.714-6.7127s-3.006-6.7131-6.714-6.7131c-3.7072 0-6.7128 3.0055-6.7128 6.7131s3.0056 6.7127 6.7128 6.7127Z"/><path fill="#fff" d="m107.088 8.79186 8.943 3.55224v1.3449l-9.946-4.03091V7.79262l9.946-3.96254v1.40568l-8.943 3.5561ZM134.15 8.79186l-8.944 3.55224v1.3449l9.943-4.03091V7.79262l-9.943-3.96254v1.40568l8.944 3.5561ZM122.114.988525h1.048L119.116 16.1208h-1.056L122.114.988525Z"/></svg>
